HIERARCHY
ROOT Hips
{
    OFFSET 0.000000 0.000000 0.000000
    CHANNELS 6 Xposition Yposition Zposition Zrotation Xrotation Yrotation
    JOINT Spine
    {
        OFFSET -0.000000 7.236184 0.000000
        CHANNELS 3 Zrotation Xrotation Yrotation
        JOINT Spine1
        {
            OFFSET -0.000000 20.420147 0.000000
            CHANNELS 3 Zrotation Xrotation Yrotation
            JOINT Neck
            {
                OFFSET -0.000000 20.336288 1.848754
                CHANNELS 3 Zrotation Xrotation Yrotation
                JOINT Head
                {
                    OFFSET -0.000000 12.354461 -1.764923
                    CHANNELS 3 Zrotation Xrotation Yrotation
                    End Site
                    {
                        OFFSET -0.000000 22.061537 0.000000
                    }
                }
            }
            JOINT LeftShoulder
            {
                OFFSET 3.573296 18.396038 -0.314103
                CHANNELS 3 Zrotation Xrotation Yrotation
                JOINT LeftArm
                {
                    OFFSET 10.880760 0.000000 0.000000
                    CHANNELS 3 Zrotation Xrotation Yrotation
                    JOINT LeftForeArm
                    {
                        OFFSET 27.185530 0.000000 0.000000
                        CHANNELS 3 Zrotation Xrotation Yrotation
                        JOINT LeftHand
                        {
                            OFFSET 27.825975 0.000000 0.000000
                            CHANNELS 3 Zrotation Xrotation Yrotation
                            End Site
                            {
                                OFFSET 13.236923 0.000000 0.000000
                            }
                        }
                    }
                }
            }
            JOINT RightShoulder
            {
                OFFSET -3.474926 18.396038 -0.314103
                CHANNELS 3 Zrotation Xrotation Yrotation
                JOINT RightArm
                {
                    OFFSET -10.880760 0.000000 0.000000
                    CHANNELS 3 Zrotation Xrotation Yrotation
                    JOINT RightForeArm
                    {
                        OFFSET -27.185530 0.000000 0.000000
                        CHANNELS 3 Zrotation Xrotation Yrotation
                        JOINT RightHand
                        {
                            OFFSET -27.825975 0.000000 0.000000
                            CHANNELS 3 Zrotation Xrotation Yrotation
                            End Site
                            {
                                OFFSET -13.236923 0.000000 0.000000
                            }
                        }
                    }
                }
            }
        }
    }
    JOINT LeftUpLeg
    {
        OFFSET 8.824615 0.000000 0.000000
        CHANNELS 3 Zrotation Xrotation Yrotation
        JOINT LeftLeg
        {
            OFFSET -0.000000 -35.111282 0.000000
            CHANNELS 3 Zrotation Xrotation Yrotation
            JOINT LeftFoot
            {
                OFFSET -0.000000 -42.324711 0.000000
                CHANNELS 3 Zrotation Xrotation Yrotation
                JOINT LeftToeBase
                {
                    OFFSET -0.000000 -5.735999 13.236923
                    CHANNELS 3 Zrotation Xrotation Yrotation
                    End Site
                    {
                        OFFSET -0.000000 0.000000 3.529846
                    }
                }
            }
        }
    }
    JOINT RightUpLeg
    {
        OFFSET -8.824615 0.000000 0.000000
        CHANNELS 3 Zrotation Xrotation Yrotation
        JOINT RightLeg
        {
            OFFSET -0.000000 -35.111282 0.000000
            CHANNELS 3 Zrotation Xrotation Yrotation
            JOINT RightFoot
            {
                OFFSET -0.000000 -42.324711 0.000000
                CHANNELS 3 Zrotation Xrotation Yrotation
                JOINT RightToeBase
                {
                    OFFSET -0.000000 -5.735999 13.236923
                    CHANNELS 3 Zrotation Xrotation Yrotation
                    End Site
                    {
                        OFFSET -0.000000 0.000000 3.529846
                    }
                }
            }
        }
    }
}
MOTION
Frames:    10
Frame Time:    0.008333
-4.839211    83.470070    101.037323    0.425870    -5.822796    -176.822128    -1.739955    -13.452818    0.020976    2.143340    8.528296    0.066605    1.506247    7.387444    -1.106595    4.302134    -10.439195    -0.280143    -1.789542    17.607477    -1.110694    -48.126457    46.157024    -35.440090    20.424986    -6.666584    -42.459911    12.308212    1.510360    1.477721    8.360174    19.865376    -4.213736    38.567875    43.364815    36.487816    -21.569736    -12.007264    54.917805    -19.168457    -0.160384    -3.287434    4.813379    -9.936083    -1.420788    0.721669    15.309964    2.281921    -6.164299    -8.766513    -10.321772    -0.663479    -0.559573    0.736187    -3.369822    -4.519410    1.182848    1.657024    7.156481    4.140785    -0.700990    -5.457661    -11.661780    -2.152692    -0.312120    2.329257    
-4.836272    83.473679    101.041153    0.401781    -5.845549    -176.795685    -1.752616    -13.461603    0.007122    2.142169    8.526340    0.054489    1.530447    7.347223    -1.079833    4.246338    -10.477184    -0.266376    -1.777063    17.631081    -1.147777    -48.188534    46.085098    -35.294189    20.412907    -6.655271    -42.532623    12.278587    1.525282    1.418806    8.347055    19.837589    -4.252783    38.625683    43.361629    36.464859    -21.551243    -12.032682    54.944546    -19.220629    -0.183720    -3.315834    4.784569    -9.966868    -1.379692    0.739953    15.310009    2.214561    -6.166524    -8.760050    -10.324986    -0.662990    -0.551910    0.735634    -3.395710    -4.537890    1.147692    1.656808    7.154753    4.144570    -0.692556    -5.457964    -11.659246    -2.146261    -0.319672    2.322323    
-4.833644    83.477165    101.045021    0.376878    -5.868926    -176.770142    -1.765784    -13.470741    -0.006330    2.140796    8.523804    0.042926    1.553516    7.308186    -1.053816    4.192319    -10.515085    -0.252908    -1.764327    17.654430    -1.183694    -48.252163    46.013691    -35.148041    20.400164    -6.647492    -42.608818    12.253375    1.537411    1.361522    8.333486    19.809866    -4.291703    38.682865    43.359020    36.441643    -21.533537    -12.057981    54.973579    -19.271339    -0.205782    -3.344060    4.754655    -9.997429    -1.341954    0.757463    15.309040    2.151731    -6.168753    -8.753236    -10.328385    -0.662523    -0.544216    0.735106    -3.422916    -4.557325    1.112242    1.656942    7.153486    4.148910    -0.683418    -5.458455    -11.656191    -2.139815    -0.327163    2.315373    
-4.831048    83.480324    101.048401    0.353386    -5.889584    -176.745590    -1.776659    -13.476979    -0.018907    2.138972    8.520502    0.032051    1.575971    7.269998    -1.028634    4.139224    -10.552717    -0.240162    -1.750981    17.677338    -1.217563    -48.319916    45.942158    -34.998955    20.385653    -6.646198    -42.693047    12.235247    1.544287    1.306730    8.319182    19.781797    -4.331067    38.739513    43.357502    36.417725    -21.516769    -12.083198    55.007168    -19.320276    -0.226225    -3.372095    4.726676    -10.023334    -1.308458    0.773283    15.305642    2.094039    -6.170797    -8.745971    -10.331369    -0.662038    -0.537137    0.734558    -3.448607    -4.573576    1.077654    1.657218    7.151593    4.153711    -0.671753    -5.459188    -11.652870    -2.133172    -0.335408    2.308212    
-4.828911    83.483170    101.051643    0.328768    -5.910161    -176.722504    -1.787284    -13.482480    -0.030512    2.136320    8.515885    0.022101    1.597252    7.233702    -1.004568    4.087797    -10.591103    -0.228054    -1.736406    17.700081    -1.249160    -48.394302    45.869678    -34.844398    20.368307    -6.654346    -42.789307    12.226225    1.543372    1.254454    8.303407    19.752848    -4.370835    38.796791    43.357071    36.391758    -21.501144    -12.108343    55.047878    -19.366901    -0.244396    -3.400222    4.697258    -10.046807    -1.282398    0.787217    15.299036    2.045866    -6.172689    -8.737615    -10.334625    -0.661440    -0.530254    0.733885    -3.476192    -4.589948    1.042356    1.658125    7.150130    4.159811    -0.658055    -5.460352    -11.648643    -2.126319    -0.344325    2.300824    
-4.826967    83.485519    101.054192    0.305561    -5.927176    -176.701248    -1.795094    -13.484011    -0.040337    2.133067    8.509642    0.013114    1.617082    7.199805    -0.982181    4.038567    -10.629293    -0.217095    -1.720717    17.722120    -1.277544    -48.476013    45.797062    -34.685055    20.347357    -6.673873    -42.898769    12.227061    1.532767    1.205634    8.286299    19.723524    -4.410788    38.853634    43.357937    36.363888    -21.487026    -12.133380    55.096802    -19.409822    -0.259673    -3.427810    4.669802    -10.063482    -1.264876    0.798268    15.288369    2.008138    -6.174440    -8.728361    -10.337472    -0.660769    -0.523937    0.733133    -3.502362    -4.602314    1.008017    1.659279    7.148100    4.166535    -0.640812    -5.461952    -11.643451    -2.119290    -0.353893    2.293249    
-4.825363    83.487350    101.056145    0.282889    -5.941377    -176.682037    -1.800810    -13.482162    -0.048847    2.129051    8.501483    0.005914    1.635180    7.168731    -0.961737    3.991952    -10.667484    -0.207396    -1.703753    17.743370    -1.302350    -48.565681    45.724487    -34.520504    20.322008    -6.706418    -43.022808    12.236818    1.510648    1.159846    8.267810    19.693577    -4.451213    38.909885    43.360203    36.333652    -21.474201    -12.158086    55.155327    -19.448812    -0.271853    -3.455009    4.643245    -10.073738    -1.257935    0.806007    15.273146    1.983329    -6.176015    -8.717986    -10.340029    -0.660003    -0.518138    0.732275    -3.528379    -4.611638    0.974540    1.661058    7.145860    4.174411    -0.621708    -5.463901    -11.637825    -2.112209    -0.364145    2.285620    
-4.823939    83.488594    101.057243    0.261853    -5.951238    -176.664841    -1.803406    -13.475716    -0.055439    2.124665    8.491513    0.000112    1.651427    7.140388    -0.943385    3.947924    -10.704967    -0.199123    -1.685449    17.763653    -1.323405    -48.663441    45.652073    -34.351067    20.291321    -6.752688    -43.161465    12.253718    1.475769    1.116090    8.247467    19.662800    -4.491666    38.966278    43.363804    36.300190    -21.462496    -12.182457    55.224228    -19.483473    -0.280662    -3.481575    4.619084    -10.075746    -1.261797    0.810052    15.252991    1.971523    -6.177339    -8.706529    -10.342085    -0.659163    -0.512851    0.731336    -3.552664    -4.615996    0.942317    1.663021    7.142901    4.183040    -0.600104    -5.466235    -11.631439    -2.105151    -0.374585    2.278015    
-4.822865    83.489334    101.057709    0.240975    -5.958146    -176.649673    -1.804201    -13.465644    -0.060098    2.119887    8.479175    -0.004216    1.665968    7.114854    -0.927107    3.906033    -10.741700    -0.192363    -1.665698    17.783064    -1.341017    -48.770428    45.579147    -34.175503    20.254417    -6.813381    -43.315510    12.275594    1.427139    1.072708    8.225403    19.631153    -4.532484    39.022686    43.368591    36.263172    -21.451721    -12.206724    55.304489    -19.513794    -0.286418    -3.507670    4.595383    -10.070879    -1.277534    0.810563    15.227752    1.973597    -6.178520    -8.693752    -10.343537    -0.658229    -0.508519    0.730293    -3.577165    -4.617151    0.910921    1.665637    7.139796    4.192691    -0.577168    -5.468923    -11.624538    -2.098221    -0.385091    2.270549    
-4.823481    83.489868    101.059219    0.211633    -5.972887    -176.637375    -1.812135    -13.461689    -0.063876    2.114153    8.463821    -0.006174    1.678336    7.092811    -0.913181    3.867181    -10.777104    -0.187138    -1.645099    17.801455    -1.355120    -48.884239    45.506836    -33.997101    20.211529    -6.887167    -43.481636    12.299706    1.365162    1.028833    8.201823    19.599001    -4.572916    39.078445    43.374493    36.222626    -21.441738    -12.230668    55.395142    -19.539408    -0.289144    -3.533071    4.560243    -10.071273    -1.308200    0.809479    15.198535    1.994536    -6.179696    -8.678606    -10.345840    -0.657228    -0.504466    0.729178    -3.613716    -4.628367    0.877209    1.671261    7.139880    4.205450    -0.555169    -5.472025    -11.617264    -2.091729    -0.395110    2.263556    
